<?xml version="1.0" encoding="UTF-8" standalone="no"?>
<!-- Created with Inkscape (http://www.inkscape.org/) -->

<svg
   width="1000"
   height="553.97101"
   viewBox="0 0 1000 553.97101"
   version="1.1"
   id="svg1"
   xml:space="preserve"
   inkscape:version="1.4.2 (ebf0e940d0, 2025-05-08)"
   sodipodi:docname="logo.svg"
   inkscape:export-filename="logo.png"
   inkscape:export-xdpi="96"
   inkscape:export-ydpi="96"
   xmlns:inkscape="http://www.inkscape.org/namespaces/inkscape"
   xmlns:sodipodi="http://sodipodi.sourceforge.net/DTD/sodipodi-0.dtd"
   xmlns="http://www.w3.org/2000/svg"
   xmlns:svg="http://www.w3.org/2000/svg"
   xmlns:rdf="http://www.w3.org/1999/02/22-rdf-syntax-ns#"
   xmlns:cc="http://creativecommons.org/ns#"
   xmlns:dc="http://purl.org/dc/elements/1.1/"><title
     id="title2">Center for Metropolitan Studies</title><sodipodi:namedview
     id="namedview1"
     pagecolor="#ffffff"
     bordercolor="#000000"
     borderopacity="0.25"
     inkscape:showpageshadow="2"
     inkscape:pageopacity="0.0"
     inkscape:pagecheckerboard="0"
     inkscape:deskcolor="#d1d1d1"
     inkscape:document-units="px"
     inkscape:zoom="0.70710678"
     inkscape:cx="458.9123"
     inkscape:cy="314.66252"
     inkscape:window-width="1920"
     inkscape:window-height="1011"
     inkscape:window-x="0"
     inkscape:window-y="0"
     inkscape:window-maximized="1"
     inkscape:current-layer="layer13"
     showguides="false"
     showgrid="true"
     guidecolor="#ff00ff"
     guideopacity="1"><sodipodi:guide
       position="116.75,15.984007"
       orientation="0,-1"
       id="guide9"
       inkscape:locked="false" /><sodipodi:guide
       position="30,40.81108"
       orientation="-1,0"
       id="guide14"
       inkscape:locked="false"
       inkscape:label=""
       inkscape:color="rgb(255,0,255)" /><sodipodi:guide
       position="970,34.679811"
       orientation="-1,0"
       id="guide15"
       inkscape:locked="false"
       inkscape:label=""
       inkscape:color="rgb(255,0,255)" /><sodipodi:guide
       position="5.4375,342.23505"
       orientation="0,1"
       id="guide28"
       inkscape:locked="false"
       inkscape:label=""
       inkscape:color="rgb(0,134,229)" /><sodipodi:guide
       position="2,344.73505"
       orientation="0,-1"
       id="guide29"
       inkscape:locked="false" /><inkscape:grid
       id="grid102"
       units="px"
       originx="0"
       originy="0"
       spacingx="0.25"
       spacingy="0.25"
       empcolor="#0099e5"
       empopacity="0.30196078"
       color="#0099e5"
       opacity="0.14901961"
       empspacing="5"
       enabled="true"
       visible="false" /><sodipodi:guide
       position="-0.25,342.23505"
       orientation="0,-1"
       id="guide1"
       inkscape:locked="false" /></sodipodi:namedview><defs
     id="defs1"><clipPath
       clipPathUnits="userSpaceOnUse"
       id="clipPath13"><rect
         style="fill:#141414;fill-opacity:1;stroke-width:25.0421;stroke-linecap:round;stroke-linejoin:round;stroke-miterlimit:3;stroke-dasharray:25.0421, 18.7815"
         id="rect14"
         width="1000"
         height="556.64484"
         x="0"
         y="0" /></clipPath></defs><g
     inkscape:groupmode="layer"
     id="layer13"
     inkscape:label="Icon"
     style="display:inline"
     sodipodi:insensitive="true"><path
       id="rect302-7"
       style="display:inline;mix-blend-mode:normal;fill:#141414;fill-opacity:1;stroke-width:4.47657;stroke-linecap:round;stroke-linejoin:round;stroke-miterlimit:3;stroke-dasharray:4.47657, 3.35737"
       inkscape:label="Black Squares"
       d="m 616.14648,0 v 30.207031 h 30.20704 V 0 Z M 475.25,17.207031 V 27.5 h -10.5 V 51.25 H 456 V 76.84375 95 h 18.15625 V 76.84375 h 7.4375 V 57 H 494.25 V 46.707031 h 29 v -29.5 h -18.5 z M 348.5625,26.5 V 56 H 340.375 V 46 H 301.75 V 35.912109 H 282.5 252.99805 v 29.5 H 282.5 291 V 95.375 v 7.93359 h -19.25 v 39.75 h 39.75 v -14.875 h 27.25 V 95.375 h 1.625 8.6875 v 27.75 H 378 v -28.9375 -25 h 13.25 26.89844 V 26.5 H 391.25 Z m 294.5293,30.896484 v 35.15625 h 4.1582 v 32.812496 h -20 V 155.5 h 30.13477 4.31835 v 24.75586 h -6.0332 v 30.13281 h 30.13477 v -24.7539 h 6.0332 H 706.25 V 155.5 H 691.83789 685.75 v -28 h 21.64844 V 76.601562 h -9.25 H 678.25 v -8.55664 h 10.39258 V 57.396484 H 678.25 Z M 725,68.300781 v 32.499999 h 32.5 V 68.300781 Z M 474.54688,95.023438 v 8.398442 H 448.09375 V 131.875 h 28.45313 v -7.64844 H 503.75 V 95.023438 Z M 532,95.398438 V 125 h 29.60156 V 95.398438 Z m 37.64844,38.271482 v 21.70703 h 20.80859 v 28.03516 H 618.75 v -28.29297 h -27.39453 v -21.44922 z m 20.80859,49.74219 H 582.5 560.79297 v 21.70703 H 582.5 h 7.95703 z m -242,-41.49805 V 172.5 h 30.58594 V 141.91406 Z M 501.44922,149 v 32 3.75 h 32 v -32 -3.75 z m -209.57813,3.68555 v 19.6289 0.55664 h -4.38086 V 186.62891 198.75 H 301.25 v -13.75977 -1.61132 H 311.5 V 163.75 152.68555 Z M 715,155 v 31.25 h 31.25 V 155 Z m -288.30664,18.5 v 29.08594 H 401.54297 V 232 h 23.38476 v 9.33594 h 32.58399 V 222.34961 H 472.75 V 261.5 h 56 v -19 h 21.75 v -31.25 h -21.75 v -5.75 h -53.20703 v -32 z M 231.5332,191.25 v 29.5 h 29.5 15.2168 v -29.5 H 261.0332 Z M 309.75,202.18164 V 211.75 h 9.56836 9.21484 H 329 v 26.25 2 h -9 -19.5 V 230 H 277.125 261 221.75 v 39.25 H 261 277.125 300.5 V 268 h 19.5 18.25 v -26.75 h 19.5 v -28.75 -3.25 h -19 v -7.06836 h -2.7168 -7.5 -9.21484 z M 162.71875,209.25 v 32 h 32 v -32 z m 115.0918,64.96875 v 28 h 28 v -28 z M 311.5,277.75 v 28 h 28 v -28 z m 64.75,20.75 v 28 h 28 v -28 z m 233,12.7793 v 47.29297 h 47.29297 V 311.2793 Z m -78.16406,8.30664 V 349 H 560.5 V 319.58594 Z M 443,322 v 28 h 28 v -28 z m -172.75,6.5 v 28 h 28 v -28 z" /><path
       id="rect100-9"
       style="display:inline;mix-blend-mode:normal;fill:#868485;fill-opacity:1;stroke-width:3.98692;stroke-linecap:round;stroke-linejoin:round;stroke-miterlimit:3;stroke-dasharray:3.98692, 2.99016"
       inkscape:label="Gray Squares"
       d="m 265.5,24.5 v 26 23.75 24.5 h 26 24 14.25 v -26 h -14.25 -24 V 48.25 24.5 Z m 354.79297,1.75 V 45.292969 H 611.25 V 82.207031 89.101562 93.75 h -20.20703 v 46.32617 h 46.32617 V 121.25 h 10.79492 V 84.335938 54.707031 H 648.75 V 26.25 Z M 437.25,32.75 v 29 11.5 h 29 v -29 -11.5 z m 86,1 v 29.5 h 29.5 V 33.75 Z M 369.75,53.5 v 19 8.75 h 19 v -19 -8.75 z M 543.45117,83.404297 V 101.5 v 9.75 h 18.09766 v -18.095703 -9.75 z M 437.96875,92.75 v 28.03125 H 466 V 92.75 Z M 466,120.78125 v 26.5 15.96875 18 h 18.5 v 25.48633 h 27.48633 V 179.25 H 492.5 v -24.5 -18 -15.96875 z M 215,111.5 V 137 h 25.5 18.75 23.5 23.75 22.25 V 111.5 H 306.5 282.75 259.25 240.5 Z m 154.5,9.75 v 37.5 h 33 v 18.75 h 15.125 v 29.875 20.125 h 33.625 14 V 180 h -14 v -6.25 -23.625 H 429.875 407 V 121.25 Z M 156.5,139 v 28.5 H 185 V 139 Z m 357.23828,2.25 V 170 h 28.75 v -28.75 z m 86.85547,10.72461 V 179.5 h 27.52539 v -27.52539 z m 48.81055,0.22656 V 178.75 200 213.5 h 16.61914 v 16.72656 H 619.11328 V 260 H 598.75 v 55.5 h 39 v 1.625 6.875 h 57.75 v -57.75 -6.875 H 675 v -29.14844 h 20.29883 v -29.27539 h -19.34766 v -14 -13.5 -21.25 z M 233.25,160.75 v 26.75 h 26.75 2.5 v 8.375 h 10.125 V 225.25 H 302 v -29.375 h -12 v -27.5 H 262.5 V 160.75 H 260 Z M 302.5,169 v 7.5 h 7.5 7.5 7.5 3.75 V 169 H 325 317.5 310 Z m 230.25,9.875 v 17.0625 h 17.0625 V 178.875 Z m 173.5,18.98828 V 226.25 h 28.38672 V 197.86328 Z M 580.12891,198.75 v 31.3125 H 578.75 551.875 v 26.875 h 26.875 12.1875 v -26.875 h 20.50391 V 198.75 Z M 551.875,256.9375 h -27.75 v 27.75 h 27.75 z M 339.54492,209.25 v 27.5 h 27.5 v -27.5 z m 154.70508,2.5 v 16.5 h 16.5 10.75 v -16.5 h -10.75 z m -10.4707,16.5293 V 257 H 512.5 V 228.2793 Z M 435.85742,239.5 v 28 h 19.6211 v 27 h 37.4414 v -37.44141 h -29.0625 V 239.5 Z m -144.25195,5.76953 v 8.89453 3.38867 H 282.75 v -8.21679 H 253.58594 V 278.5 H 282.75 v 12.25 H 282 v 0.75 h -12.5 v 46 h 46 13.25 v -12.75 h 10.5 v 26.5 H 369 392.5 412.375 V 321.5 H 392.5 369 367.5 v -36.75 -18 h -28 v 18 H 328.75 V 257.55273 H 300.5 v -5.19726 -7.08594 z M 715,287.94336 v 28.75 h 28.75 v -28.75 z M 551.25,316.25 v 26.5 h 26.5 v -26.5 z m -95.125,0.21289 V 362.25 h 45.78711 9.33789 v -45.78711 h -9.33789 z M 609.25,355 v 27.25 H 636.5 V 355 Z" /><rect
       style="display:inline;fill:#141414;fill-opacity:1;stroke:none;stroke-width:29.9575;stroke-linecap:square;stroke-linejoin:miter;stroke-miterlimit:3;stroke-dasharray:none;stroke-dashoffset:0"
       id="rect29"
       width="1000"
       height="2.5"
       x="0"
       y="209.25"
       inkscape:label="Line" /><path
       id="rect1-5-6"
       style="display:inline;mix-blend-mode:normal;fill:#014691;fill-opacity:1;stroke-width:3.91694;stroke-linecap:round;stroke-linejoin:round;stroke-miterlimit:3;stroke-dasharray:3.91694, 2.93771"
       inkscape:label="Blue Squares"
       d="M 383.75,15.5 V 43 70 95 h 28.75 11.25 25.70703 V 66.25 H 423.75 417.92188 V 46.773438 H 411.25 V 42.5 15.5 Z m 356.125,3.1875 V 38.375 H 730 V 77.125 87.5 h -10 v 38 9.25 10.25 28.75 h 28.75 1.125 V 145 h -1.125 -18.5 V 134.75 H 758 v -19 h 10.75 V 77 41.8125 h 0.0625 V 18.6875 H 760.125 Z M 556,25.875 v 30.25 11.75 h 5.625 v 8.5 17.1875 14.5625 H 552.5 V 132.75 H 536.25 V 166 h -1.75 -7 v 7 h 7 1.75 v 20 17.375 H 532 v 27.875 h -28.5 v 29.5 h 29.5 9 0.5 v -27.875 h 19 V 221.5 h 4 V 201 h 14.75 v -1.25 h 4.5 V 172.5 h -4.5 V 162 h -5.5 v -8 h 9.75 v 9.75 h 29.25 V 134.5 h -12.5 V 108.125 90 53.9375 36.75 h -15 V 25.875 Z M 503.5,267.75 H 480.75 462.5 V 249.5 h -22 -19.25 v -7.66406 -11.39844 h -3.22656 V 210.5 189.52344 H 410.5 v -5.9336 -28.25 H 378.75 357.9375 V 142.3125 133.5 H 363.5 v 8.5 h 38.5 2.75 v -8.5 h 12.0625 v 30 h 37.25 10.1875 v 17.75 h 21.25 0.75 V 160 h -0.75 -18 V 126.25 H 454.0625 450.25 V 103.5 H 425 404.75 402 365 335 v 20 h -8.5 v 18.8125 h -7.6875 v 27 h 27 7.36719 v 11.59766 h 5.28515 V 189.5 h 8.58008 v 37.54492 11.18164 h 4.87305 v 29.875 h 14.25 v 8.81641 H 401 V 289 h 14.92383 v 5.74414 H 391.91797 V 307.375 h -8.23047 -17.625 V 325 h 17.625 8.8125 11.92383 v 16.36914 10 h 0.64062 v 12.59766 h 10.38672 v 9.00976 h 28 20.25 v -28 H 436.31445 V 334.4668 h -1.75 -10.02148 v -3.2168 -4.50586 h 30.625 4 V 337.5 H 479.92383 495 506.86328 v 13.83789 4.9375 h 25.5 v -25.5 -4.9375 H 526.5 v -9.375 H 505.46289 V 316.5 H 495 487.41797 V 296.75 H 503.5 Z M 647.14648,26.25 V 52.853516 59 H 673.75 V 32.396484 26.25 Z M 214.5,34 v 29.5 19 29 H 244 v -0.0606 h 24.65625 13.5625 V 84.314453 H 268.65625 244 V 82 53 34 Z M 474.375,45.875 V 76.5 H 505 h 7.625 v 10.0625 h 12.0625 10.5625 8.78125 V 74.5 H 535.25 524.6875 518.25 V 45.875 H 505 Z m 208.83008,11.521484 v 10.648438 h 10.64844 9.25 7.64648 V 57.396484 h -7.64648 -9.25 z M 320.75,64.5 v 29 h 29 v -29 z m 340.5,11.333984 V 106.25 h 30.41602 V 75.833984 Z M 494.5,94.375 v 28.75 16.625 12 h 9.75 v 9.5 h 25 V 145.5 h 3.5 v -12.75 h -3.5 V 117 105 h -6 V 94.375 Z M 673,117 v 27.5 h 27.5 V 117 Z m -507.03125,4.81445 v 28.75 h 28.75 0.53125 V 160.5 H 224 v -0.125 h 9.25 v -9.81055 H 251.46875 271.75 v 27.5 h 28 v -15.8125 h 5.90625 v -28.75 -0.002 -11.68555 h -25.5625 -28.625 -28 -28.75 z M 632.625,135.75 v 28.875 H 661.5 V 135.75 Z m 135.03906,8.72461 v 29 7.80664 22.19336 h 19.71485 v 19.2207 h -18.84571 -29.75 v 29.75 h -19.46093 v 28.75 17.60157 h 17.52343 v 11.77343 h 20.47266 v 8.71485 h 30.75 6.875 v -9.75 h -6.875 v -10.77344 h 27.31055 v -29.75 -14.06641 h -28.56055 v -2.5 h 8.71484 v -29 h 21.84571 v -30 h -20.71485 v -18.9707 -22.19336 -7.80664 z M 184.125,168.75 v 29.75 h 29.5 v 13.1875 h 8.15234 V 239.75 h 30.5 v -30.5 H 242.5 v -23.0625 h -6.875 v -6.875 h -19 -2.75 V 168.75 Z m 489.625,3.9668 v 18.75 h 18.75 6.78125 v 29.41992 h 0.12695 v 0.17773 H 697.75 681.06445 668.75 V 218.37891 209.25 h -12.87109 v 12.87109 9.12891 h 5 v 10 h 6.45507 v 10.23047 h 30.41602 2.5 V 240.75 h 10.5 v -17.56445 h 18.0918 V 193.75 h -0.125 v -2.29883 H 699.28125 V 172.7168 H 692.5 Z M 623.0625,173.5 v 6 H 599.24219 V 207.75781 216 h 3.3789 v 14.25 8 H 585.01172 V 247 h -6.45508 v 6.75 H 573.875 568.05469 562 554.25 v 7.75 h 7.75 6.05469 0.82031 v 6.17578 h -17.81836 v 40.5 h 12.6875 v 29.1875 h 8.75 v 11.125 h 10.375 v 8.0625 h 27 21.75 v -27 h -13.1875 v -32.6875 h -14.1875 -5.4375 V 267.67578 260 h 7.95508 12.33594 V 243.52344 230.25 h 12.03125 v -0.0234 H 649.4043 V 211.75 h -6.14649 V 192.12109 H 627.5 v -4.3789 -3.99219 h 5.8125 V 173.5 Z M 483.65625,189.0625 V 200.875 H 463.375 v 8.375 H 445.25 v 28.25 2 h 27.5 v -2 h 0.75 v -5.875 h 15.25 V 209.25 H 503.84375 521.25 532.59375 V 189.0625 H 521.25 503.84375 Z m 342.60937,4.17773 v 24.25 6.00977 h 24.25 v -24.25 -6.00977 z M 291.60547,221.3125 v 28 h 28 v -28 z m -49.25,28.02344 v 21 5.75 h -8.625 V 256.0293 h -30.5 v 30.5 h 29.5 v 19.80664 h 28.28125 v 8.2207 h -8.40039 -30.25 v 10.0625 h -28.5 v 29 h 29 17.25 v -8.8125 h 12.5 17.56055 3.06445 5.24219 6.52148 5.38672 v 20.9707 h 32 32 4 v -32 h -4 -32 -32 V 336.5 H 285 h -6.52148 -5.24219 v -9.45508 H 283.75 v -20.70898 h 28.0625 v -30.25 h -30.25 -18.20703 v -5.75 -21 z m 505.7168,3.10937 h 8.99609 v 9.375 h -8.99609 z m 87.27734,28.77149 v 14.25 14.25 0.75 h 14.25 v -14.25 -0.75 -14.25 z M 665.0293,305 v 23.7207 h 7.17968 v 8.6875 1.375 h 27.5 v -27.5 -1.375 h -4.5 V 305 H 688.75 Z m 63.48632,43.68555 v 28 h 28 v -28 z m -169.08398,17.05273 v 28 h 28 v -28 z" /></g><g
     inkscape:groupmode="layer"
     id="layer11"
     inkscape:label="Text"
     style="display:inline"
     sodipodi:insensitive="true"><path
       style="font-size:74.6283px;font-family:'Rotis Semi Sans Std';-inkscape-font-specification:'Rotis Semi Sans Std';letter-spacing:-0.149851px;word-spacing:0px;fill:#141414;stroke-width:4.4777;stroke-linecap:round;stroke-linejoin:round;stroke-miterlimit:3;stroke-dasharray:4.4777, 3.35826"
       d="m 63.371162,529.64206 c -2.761248,2.08959 -5.522495,4.77621 -11.940529,4.77621 -11.194246,0 -14.776404,-11.79127 -14.776404,-24.03032 0,-7.53745 1.492566,-20.82129 12.089785,-20.82129 7.388202,0 9.328538,6.19415 9.328538,10.89573 h 7.313574 c 0,-7.83597 -5.671751,-14.7764 -16.194342,-14.7764 -15.746572,0 -19.179474,15.8212 -19.179474,25.5975 0,13.65698 4.85084,27.53785 20.746668,27.53785 5.74638,0 10.14945,-1.94034 12.612184,-3.35828 z m 32.537352,4.55232 c -2.089592,0.5224 -3.283645,1.0448 -6.492662,1.0448 -10.970361,0 -13.65698,-11.41813 -13.65698,-19.2541 h 20.821297 c 0,-2.91051 0,-14.32864 -12.612183,-14.32864 -10.373334,0 -14.403263,7.38821 -14.403263,17.53765 0,13.05996 6.940432,19.62725 17.537651,19.62725 4.029929,0 5.895636,-0.59703 8.80614,-1.41794 z M 75.908129,512.70143 c 0,-1.94033 1.343309,-8.05985 7.686715,-8.05985 6.343406,0 7.238946,5.00009 7.238946,8.05985 z m 29.626801,25.299 h 5.52249 v -15.22418 c 0,-6.8658 3.35828,-16.56748 10.82111,-16.56748 4.92547,0 4.92547,5.0001 4.92547,8.80614 v 22.98552 h 5.52249 v -27.01545 c 0,-3.9553 -2.31348,-9.32854 -8.50763,-9.32854 -7.01506,0 -10.59722,5.07473 -12.76144,9.55243 h -0.14925 v -8.73152 h -5.37324 z m 56.3437,-3.20902 c -0.67165,0.22389 -1.49256,0.44777 -3.35827,0.44777 -6.11952,0 -6.19415,-4.10456 -6.11952,-8.28374 v -21.04518 h 9.70168 v -3.43291 h -9.70168 v -11.71664 l -5.5225,3.35827 v 8.35837 h -6.26877 v 3.43291 h 6.26877 v 23.95568 c -0.0746,6.41804 3.28365,8.9554 10.59722,8.9554 1.49257,0 2.61199,0 4.40307,-0.29851 z m 7.68616,3.20902 h 5.5225 v -16.79137 c 0,-6.49266 2.23884,-13.05995 10.00019,-13.05995 h 1.56719 v -6.49267 c -5.74638,0 -9.70168,5.37324 -11.41813,9.25391 h -0.14925 v -8.433 h -5.5225 z m 35.89565,0.82091 c 10.59722,0 15.44806,-6.71655 15.44806,-18.20931 0,-11.3435 -4.85084,-18.95559 -15.44806,-18.95559 -10.59722,0 -15.07492,7.61209 -15.07492,18.95559 0,11.49276 4.4777,18.20931 15.07492,18.20931 z m -8.88077,-17.98542 c 0,-7.76135 1.26868,-16.19434 8.88077,-16.19434 7.68671,0 9.25391,8.43299 9.25391,16.19434 0,7.31357 -1.5672,15.00029 -9.25391,15.00029 -7.61209,0 -8.88077,-7.68672 -8.88077,-15.00029 z m 72.76139,17.16451 h 5.52249 V 486.5069 h -5.52249 v 22.31386 h -0.14926 c -0.82091,-2.16422 -2.9105,-7.16432 -9.55242,-7.16432 -8.9554,0 -12.76144,8.50763 -12.76144,18.65708 0,9.47779 2.46273,18.50782 12.01515,18.50782 6.5673,0 9.55243,-5.29861 10.29871,-7.68672 h 0.14926 z m -16.26897,-17.31377 c 0,-7.46283 1.71645,-15.44806 7.53746,-15.44806 6.64191,0 8.73151,10.14945 8.73151,14.32864 0,8.88076 -3.65679,15.52268 -9.17928,15.52268 -5.67176,0 -7.08969,-7.46283 -7.08969,-14.40326 z m 57.3139,13.50772 c -2.08959,0.5224 -3.28364,1.0448 -6.49266,1.0448 -10.97036,0 -13.65698,-11.41813 -13.65698,-19.2541 h 20.8213 c 0,-2.91051 0,-14.32864 -12.61219,-14.32864 -10.37333,0 -14.40326,7.38821 -14.40326,17.53765 0,13.05996 6.94043,19.62725 17.53765,19.62725 4.02993,0 5.89564,-0.59703 8.80614,-1.41794 z m -20.00038,-21.49295 c 0,-1.94033 1.34331,-8.05985 7.68671,-8.05985 6.34341,0 7.23895,5.00009 7.23895,8.05985 z m 49.25348,25.299 h 25.59751 v -4.40307 h -19.40336 v -20.37353 h 17.68691 v -4.25381 h -17.68691 v -18.35857 h 18.65707 v -4.10455 h -24.85122 z m 50.74658,-35.07531 c -1.41794,-0.29851 -4.55232,-1.26868 -8.28374,-1.26868 -8.05986,0 -12.16441,3.58216 -12.16441,9.70168 0,6.0449 5.14935,7.9106 9.62705,10.52259 4.17918,2.46274 7.61208,3.88068 7.61208,7.46283 0,4.02993 -3.35827,5.74638 -7.46283,5.74638 -4.62695,0 -9.17928,-2.9105 -9.92556,-3.35827 v 5.59712 c 1.71645,0.67166 4.77621,1.49257 9.62705,1.49257 9.32854,0 13.28384,-5.0001 13.28384,-10.52259 0,-5.0001 -2.68662,-7.46283 -6.11952,-9.4778 -6.19415,-3.73141 -11.3435,-4.92546 -11.3435,-9.17928 0,-2.9105 2.9105,-4.25381 6.11952,-4.25381 4.17918,0 7.83597,2.16422 9.03002,2.83587 z m 27.16406,31.86629 c -0.67165,0.22389 -1.49257,0.44777 -3.35827,0.44777 -6.11952,0 -6.19415,-4.10456 -6.11952,-8.28374 v -21.04518 h 9.70168 v -3.43291 h -9.70168 v -11.71664 l -5.5225,3.35827 v 8.35837 h -6.26878 v 3.43291 h 6.26878 v 23.95568 c -0.0746,6.41804 3.28365,8.9554 10.59722,8.9554 1.49257,0 2.61199,0 4.40307,-0.29851 z m 28.80597,3.20902 h 5.37324 v -35.52308 h -5.5225 v 15.22418 c 0,6.8658 -2.9105,16.56748 -9.40317,16.56748 -4.77621,0 -6.3434,-5.00009 -6.3434,-8.80614 v -22.98552 h -5.5225 v 25.37363 c 0,4.62695 2.61199,10.97036 8.50763,10.97036 7.08969,0 9.32854,-2.16422 12.76144,-9.4778 h 0.14926 z m 37.3881,0 h 5.52249 V 486.5069 h -5.52249 v 22.31386 h -0.14926 c -0.82091,-2.16422 -2.9105,-7.16432 -9.55242,-7.16432 -8.9554,0 -12.76144,8.50763 -12.76144,18.65708 0,9.47779 2.46273,18.50782 12.01516,18.50782 6.56729,0 9.55242,-5.29861 10.2987,-7.68672 h 0.14926 z m -16.26897,-17.31377 c 0,-7.46283 1.71645,-15.44806 7.53746,-15.44806 6.64192,0 8.73151,10.14945 8.73151,14.32864 0,8.88076 -3.65679,15.52268 -9.17928,15.52268 -5.67175,0 -7.08969,-7.46283 -7.08969,-14.40326 z m 46.11966,18.13468 c 10.59722,0 15.44806,-6.71655 15.44806,-18.20931 0,-11.3435 -4.85084,-18.95559 -15.44806,-18.95559 -10.59722,0 -15.07492,7.61209 -15.07492,18.95559 0,11.49276 4.4777,18.20931 15.07492,18.20931 z m -8.88077,-17.98542 c 0,-7.76135 1.26868,-16.19434 8.88077,-16.19434 7.68671,0 9.25391,8.43299 9.25391,16.19434 0,7.31357 -1.5672,15.00029 -9.25391,15.00029 -7.61209,0 -8.88077,-7.68672 -8.88077,-15.00029 z m 50.29884,-17.9108 c -1.41793,-0.29851 -4.55232,-1.26868 -8.28374,-1.26868 -8.05985,0 -12.16441,3.58216 -12.16441,9.70168 0,6.0449 5.14935,7.9106 9.62705,10.52259 4.17918,2.46274 7.61209,3.88068 7.61209,7.46283 0,4.02993 -3.35828,5.74638 -7.46283,5.74638 -4.62696,0 -9.17928,-2.9105 -9.92557,-3.35827 v 5.59712 c 1.71645,0.67166 4.77621,1.49257 9.62705,1.49257 9.32854,0 13.28384,-5.0001 13.28384,-10.52259 0,-5.0001 -2.68662,-7.46283 -6.11952,-9.4778 -6.19415,-3.73141 -11.3435,-4.92546 -11.3435,-9.17928 0,-2.9105 2.9105,-4.25381 6.11952,-4.25381 4.17918,0 7.83597,2.16422 9.03002,2.83587 z m 48.58179,35.07531 h 5.5225 V 486.5069 h -5.5225 v 22.31386 h -0.14925 c -0.82091,-2.16422 -2.91051,-7.16432 -9.55243,-7.16432 -8.95539,0 -12.76144,8.50763 -12.76144,18.65708 0,9.47779 2.46274,18.50782 12.01516,18.50782 6.56729,0 9.55242,-5.29861 10.29871,-7.68672 h 0.14925 z m -16.26897,-17.31377 c 0,-7.46283 1.71645,-15.44806 7.53746,-15.44806 6.64192,0 8.73151,10.14945 8.73151,14.32864 0,8.88076 -3.65678,15.52268 -9.17928,15.52268 -5.67175,0 -7.08969,-7.46283 -7.08969,-14.40326 z m 50.74662,17.31377 h 5.52249 v -24.47809 c 0,-5.07472 -1.19405,-11.8659 -11.64201,-11.8659 -10.37334,0 -12.53756,5.74638 -12.9107,10.07482 h 6.41803 c 0.22389,-2.68661 0.59703,-7.08968 6.26878,-7.08968 5.89564,0 6.34341,5.37323 6.34341,9.17928 v 4.70158 c -6.64192,0.37314 -20.00039,0.89554 -20.00039,11.3435 0,4.77621 3.88067,8.9554 9.62705,8.9554 5.89564,0 9.17928,-4.10456 10.22408,-5.82101 h 0.14926 z m 0,-12.61219 c 0,5.5225 -3.9553,9.70168 -8.433,9.70168 -3.20902,0 -5.59712,-2.16422 -5.59712,-5.97026 0,-7.61209 12.08978,-7.46283 14.03012,-7.61209 z m 36.86518,12.61219 h 4.92547 v -45.97104 h 0.14926 l 15.22417,45.97104 h 5.37324 l 15.22417,-46.26955 h 0.14926 v 46.26955 h 5.74638 V 486.5069 h -8.73151 l -14.47789,44.17995 h -0.14926 L 683.6687,486.5069 h -8.73152 z m 82.68764,-3.80605 c -2.08959,0.5224 -3.28364,1.0448 -6.49266,1.0448 -10.97036,0 -13.65698,-11.41813 -13.65698,-19.2541 h 20.8213 c 0,-2.91051 0,-14.32864 -12.61219,-14.32864 -10.37333,0 -14.40326,7.38821 -14.40326,17.53765 0,13.05996 6.94043,19.62725 17.53765,19.62725 4.02993,0 5.89564,-0.59703 8.80614,-1.41794 z m -20.00038,-21.49295 c 0,-1.94033 1.34331,-8.05985 7.68671,-8.05985 6.34341,0 7.23895,5.00009 7.23895,8.05985 z m 47.38833,22.08998 c -0.67165,0.22389 -1.49256,0.44777 -3.35827,0.44777 -6.11952,0 -6.19415,-4.10456 -6.11952,-8.28374 v -21.04518 h 9.70168 v -3.43291 h -9.70168 v -11.71664 l -5.5225,3.35827 v 8.35837 h -6.26877 v 3.43291 h 6.26877 v 23.95568 c -0.0746,6.41804 3.28365,8.9554 10.59722,8.9554 1.49257,0 2.61199,0 4.40307,-0.29851 z m 7.68616,3.20902 h 5.5225 v -16.79137 c 0,-6.49266 2.23884,-13.05995 10.00019,-13.05995 h 1.56719 v -6.49267 c -5.74638,0 -9.70168,5.37324 -11.41813,9.25391 h -0.14925 v -8.433 h -5.5225 z m 35.89565,0.82091 c 10.59722,0 15.44806,-6.71655 15.44806,-18.20931 0,-11.3435 -4.85084,-18.95559 -15.44806,-18.95559 -10.59722,0 -15.07492,7.61209 -15.07492,18.95559 0,11.49276 4.4777,18.20931 15.07492,18.20931 z m -8.88077,-17.98542 c 0,-7.76135 1.26868,-16.19434 8.88077,-16.19434 7.68671,0 9.25391,8.43299 9.25391,16.19434 0,7.31357 -1.5672,15.00029 -9.25391,15.00029 -7.61209,0 -8.88077,-7.68672 -8.88077,-15.00029 z m 5.97027,-24.55271 h 4.70158 l 5.00009,-10.0002 h -6.56729 z m 27.61184,57.68767 h 5.52249 v -22.31386 h 0.14926 c 0.82091,2.23885 2.9105,7.16432 9.47779,7.16432 9.17928,0 12.83607,-8.20911 12.83607,-18.13468 0,-11.19424 -3.9553,-19.03022 -12.46293,-19.03022 -5.74638,0 -9.03002,5.07473 -9.85093,7.68672 h -0.14926 v -6.86581 h -5.52249 z m 5.52249,-34.0305 c 0,-7.23895 3.58216,-14.70178 8.58225,-14.70178 5.14936,0 7.68672,6.56729 7.68672,15.37343 0,6.64192 -1.56719,14.62715 -7.61209,14.62715 -6.64192,0 -8.65688,-10.07482 -8.65688,-15.2988 z m 44.25395,18.88096 c 10.59722,0 15.44806,-6.71655 15.44806,-18.20931 0,-11.3435 -4.85084,-18.95559 -15.44806,-18.95559 -10.59722,0 -15.07492,7.61209 -15.07492,18.95559 0,11.49276 4.4777,18.20931 15.07492,18.20931 z m -8.88077,-17.98542 c 0,-7.76135 1.26869,-16.19434 8.88077,-16.19434 7.68672,0 9.25391,8.43299 9.25391,16.19434 0,7.31357 -1.56719,15.00029 -9.25391,15.00029 -7.61208,0 -8.88077,-7.68672 -8.88077,-15.00029 z m 33.80599,17.16451 h 5.5225 V 486.5069 h -5.5225 z m 41.34343,-3.80605 c -2.08959,0.5224 -3.28365,1.0448 -6.49266,1.0448 -10.97036,0 -13.65698,-11.41813 -13.65698,-19.2541 h 20.82129 c 0,-2.91051 0,-14.32864 -12.61218,-14.32864 -10.37333,0 -14.40326,7.38821 -14.40326,17.53765 0,13.05996 6.94043,19.62725 17.53765,19.62725 4.02993,0 5.89564,-0.59703 8.80614,-1.41794 z m -20.00039,-21.49295 c 0,-1.94033 1.34331,-8.05985 7.68672,-8.05985 6.34341,0 7.23894,5.00009 7.23894,8.05985 z"
       id="text9"
       inkscape:label="Centro de Estudos da Metrópole"
       aria-label="Centro de Estudos da Metrópole" /></g><metadata
     id="metadata2"><rdf:RDF><cc:Work
         rdf:about=""><cc:license
           rdf:resource="http://creativecommons.org/licenses/by-nc-sa/4.0/" /><dc:title>Center for Metropolitan Studies</dc:title></cc:Work><cc:License
         rdf:about="http://creativecommons.org/licenses/by-nc-sa/4.0/"><cc:permits
           rdf:resource="http://creativecommons.org/ns#Reproduction" /><cc:permits
           rdf:resource="http://creativecommons.org/ns#Distribution" /><cc:requires
           rdf:resource="http://creativecommons.org/ns#Notice" /><cc:requires
           rdf:resource="http://creativecommons.org/ns#Attribution" /><cc:prohibits
           rdf:resource="http://creativecommons.org/ns#CommercialUse" /><cc:permits
           rdf:resource="http://creativecommons.org/ns#DerivativeWorks" /><cc:requires
           rdf:resource="http://creativecommons.org/ns#ShareAlike" /></cc:License></rdf:RDF></metadata></svg>
