<?xml version="1.0" encoding="UTF-8" standalone="no"?>
<!-- Created with Inkscape (http://www.inkscape.org/) -->

<svg
   width="1000"
   height="1000"
   viewBox="0 0 1000 1000"
   version="1.1"
   id="svg1"
   inkscape:version="1.4.2 (ebf0e940d0, 2025-05-08)"
   sodipodi:docname="favicon.svg"
   inkscape:export-filename="favicon.png"
   inkscape:export-xdpi="96"
   inkscape:export-ydpi="96"
   xmlns:inkscape="http://www.inkscape.org/namespaces/inkscape"
   xmlns:sodipodi="http://sodipodi.sourceforge.net/DTD/sodipodi-0.dtd"
   xmlns="http://www.w3.org/2000/svg"
   xmlns:svg="http://www.w3.org/2000/svg"
   xmlns:rdf="http://www.w3.org/1999/02/22-rdf-syntax-ns#"
   xmlns:cc="http://creativecommons.org/ns#"
   xmlns:dc="http://purl.org/dc/elements/1.1/">
  <title
     id="title1">Center for Metropolitan Studies</title>
  <sodipodi:namedview
     id="namedview1"
     pagecolor="#ffffff"
     bordercolor="#000000"
     borderopacity="0.25"
     inkscape:showpageshadow="2"
     inkscape:pageopacity="0.0"
     inkscape:pagecheckerboard="0"
     inkscape:deskcolor="#d1d1d1"
     inkscape:document-units="px"
     inkscape:zoom="0.35355339"
     inkscape:cx="953.17994"
     inkscape:cy="524.67323"
     inkscape:window-width="1920"
     inkscape:window-height="1011"
     inkscape:window-x="0"
     inkscape:window-y="0"
     inkscape:window-maximized="1"
     inkscape:current-layer="layer1" />
  <defs
     id="defs1" />
  <g
     inkscape:label="Graphics"
     inkscape:groupmode="layer"
     id="layer1">
    <polygon
       points="265.48,184.02 264.93,184.28 264.43,184.63 263.99,185.05 263.63,185.54 263.34,186.08 263.15,186.65 263.05,187.26 263.04,187.56 263.04,217.85 263.05,217.54 263.05,218.15 263.15,218.75 263.34,219.33 263.63,219.87 263.99,220.36 264.43,220.78 264.93,221.12 265.48,221.39 266.07,221.56 266.67,221.63 266.83,221.63 297.11,221.63 296.96,221.63 297.57,221.6 298.17,221.48 298.74,221.27 299.26,220.96 299.74,220.58 300.14,220.12 300.47,219.61 300.7,219.04 300.85,218.45 300.9,217.85 300.9,187.56 300.85,186.95 300.7,186.36 300.47,185.8 300.14,185.29 299.74,184.83 299.26,184.44 298.74,184.14 298.17,183.92 297.57,183.8 297.11,183.77 266.83,183.77 267.28,183.8 266.67,183.78 266.07,183.85 "
       style="display:inline;mix-blend-mode:normal;fill:#141414;stroke-width:0"
       id="polygon2"
       transform="matrix(19.809826,0,0,19.809826,-4960.7766,-3640.4517)"
       inkscape:label="Black Square" />
    <polygon
       points="267.28,183.8 266.67,183.78 266.07,183.85 265.48,184.02 264.93,184.28 264.43,184.63 263.99,185.05 263.63,185.54 263.34,186.08 263.15,186.65 263.05,187.26 263.04,187.56 263.04,217.85 263.05,217.54 263.05,218.15 263.15,218.75 263.34,219.33 263.63,219.87 263.99,220.36 264.43,220.78 264.93,221.12 265.48,221.39 266.07,221.56 266.67,221.63 266.83,221.63 297.11,221.63 296.96,221.63 297.57,221.6 298.17,221.48 298.74,221.27 299.26,220.96 299.74,220.58 300.14,220.12 300.47,219.61 300.7,219.04 300.85,218.45 300.9,217.85 300.9,187.56 300.85,186.95 300.7,186.36 300.47,185.8 300.14,185.29 299.74,184.83 299.26,184.44 298.74,184.14 298.17,183.92 297.57,183.8 297.11,183.77 266.83,183.77 "
       style="display:inline;mix-blend-mode:normal;fill:#868485;stroke-width:0"
       id="polygon1"
       transform="matrix(19.809826,0,0,19.809826,-5085.7765,-3515.4516)"
       inkscape:label="Gray Square" />
    <polygon
       points="300.47,185.8 300.14,185.29 299.74,184.83 299.26,184.44 298.74,184.14 298.17,183.92 297.57,183.8 297.11,183.77 266.83,183.77 267.28,183.8 266.67,183.78 266.07,183.85 265.48,184.02 264.93,184.28 264.43,184.63 263.99,185.05 263.63,185.54 263.34,186.08 263.15,186.65 263.05,187.26 263.04,187.56 263.04,217.85 263.05,217.54 263.05,218.15 263.15,218.75 263.34,219.33 263.63,219.87 263.99,220.36 264.43,220.78 264.93,221.12 265.48,221.39 266.07,221.56 266.67,221.63 266.83,221.63 297.11,221.63 296.96,221.63 297.57,221.6 298.17,221.48 298.74,221.27 299.26,220.96 299.74,220.58 300.14,220.12 300.47,219.61 300.7,219.04 300.85,218.45 300.9,217.85 300.9,187.56 300.85,186.95 300.7,186.36 "
       style="display:inline;mix-blend-mode:normal;fill:#014691;stroke-width:0"
       id="polygon33-9"
       transform="matrix(19.809826,0,0,19.809826,-5210.7766,-3390.4516)"
       inkscape:label="Blue Square"
       sodipodi:insensitive="true" />
  </g>
  <metadata
     id="metadata1">
    <rdf:RDF>
      <cc:License
         rdf:about="http://creativecommons.org/licenses/by-nc-sa/4.0/">
        <cc:permits
           rdf:resource="http://creativecommons.org/ns#Reproduction" />
        <cc:permits
           rdf:resource="http://creativecommons.org/ns#Distribution" />
        <cc:requires
           rdf:resource="http://creativecommons.org/ns#Notice" />
        <cc:requires
           rdf:resource="http://creativecommons.org/ns#Attribution" />
        <cc:prohibits
           rdf:resource="http://creativecommons.org/ns#CommercialUse" />
        <cc:permits
           rdf:resource="http://creativecommons.org/ns#DerivativeWorks" />
        <cc:requires
           rdf:resource="http://creativecommons.org/ns#ShareAlike" />
      </cc:License>
      <cc:Work
         rdf:about="">
        <cc:license
           rdf:resource="http://creativecommons.org/licenses/by-nc-sa/4.0/" />
        <dc:title>Center for Metropolitan Studies</dc:title>
      </cc:Work>
    </rdf:RDF>
  </metadata>
</svg>
